<svg width="48" height="48" viewBox="0 0 48 48" fill="none" xmlns="http://www.w3.org/2000/svg">
  <defs>
    <linearGradient id="musicGrad1" x1="0%" y1="0%" x2="100%" y2="100%">
      <stop offset="0%" style="stop-color:#ec4899;stop-opacity:1" />
      <stop offset="100%" style="stop-color:#f43f5e;stop-opacity:1" />
    </linearGradient>
    <linearGradient id="musicGrad2" x1="0%" y1="0%" x2="100%" y2="100%">
      <stop offset="0%" style="stop-color:#06b6d4;stop-opacity:1" />
      <stop offset="100%" style="stop-color:#0891b2;stop-opacity:1" />
    </linearGradient>
  </defs>
  
  <!-- Background circle -->
  <circle cx="24" cy="24" r="22" fill="url(#musicGrad1)" stroke="#dc2626" stroke-width="2"/>
  
  <!-- Musical note body -->
  <ellipse cx="16" cy="32" rx="4" ry="3" fill="white"/>
  <ellipse cx="30" cy="28" rx="4" ry="3" fill="white"/>
  
  <!-- Musical note stems -->
  <rect x="19" y="16" width="2" height="16" fill="white"/>
  <rect x="33" y="12" width="2" height="16" fill="white"/>
  
  <!-- Musical note flags -->
  <path d="M21 16 Q28 14 35 12 L35 20 Q28 18 21 20 Z" fill="white"/>
  
  <!-- Sound waves -->
  <path d="M6 18 Q8 16 10 18 Q12 20 14 18" stroke="url(#musicGrad2)" stroke-width="2" fill="none" opacity="0.7"/>
  <path d="M6 22 Q8 20 10 22 Q12 24 14 22" stroke="url(#musicGrad2)" stroke-width="2" fill="none" opacity="0.7"/>
  <path d="M6 26 Q8 24 10 26 Q12 28 14 26" stroke="url(#musicGrad2)" stroke-width="2" fill="none" opacity="0.7"/>
  
  <!-- AI/Tech elements -->
  <circle cx="38" cy="12" r="2" fill="#fbbf24"/>
  <circle cx="42" cy="16" r="1.5" fill="#fbbf24"/>
  <circle cx="36" cy="8" r="1" fill="#fbbf24"/>
  
  <!-- Equalizer bars -->
  <rect x="36" y="32" width="2" height="8" fill="white" opacity="0.8"/>
  <rect x="39" y="28" width="2" height="12" fill="white" opacity="0.8"/>
  <rect x="42" y="30" width="2" height="10" fill="white" opacity="0.8"/>
</svg>