<svg width="48" height="48" viewBox="0 0 48 48" fill="none" xmlns="http://www.w3.org/2000/svg">
  <defs>
    <linearGradient id="fluxGrad1" x1="0%" y1="0%" x2="100%" y2="100%">
      <stop offset="0%" style="stop-color:#3b82f6;stop-opacity:1" />
      <stop offset="50%" style="stop-color:#6366f1;stop-opacity:1" />
      <stop offset="100%" style="stop-color:#8b5cf6;stop-opacity:1" />
    </linearGradient>
    <linearGradient id="fluxGrad2" x1="0%" y1="0%" x2="100%" y2="100%">
      <stop offset="0%" style="stop-color:#fbbf24;stop-opacity:1" />
      <stop offset="100%" style="stop-color:#f59e0b;stop-opacity:1" />
    </linearGradient>
    <radialGradient id="fluxGlow" cx="50%" cy="50%" r="50%">
      <stop offset="0%" style="stop-color:#ffffff;stop-opacity:0.8" />
      <stop offset="100%" style="stop-color:#ffffff;stop-opacity:0" />
    </radialGradient>
  </defs>
  
  <!-- Background circle -->
  <circle cx="24" cy="24" r="22" fill="url(#fluxGrad1)" stroke="#3730a3" stroke-width="2"/>
  
  <!-- Main flux symbol - stylized "F" with flowing lines -->
  <path d="M12 14 L12 34 L30 34 L30 30 L16 30 L16 26 L26 26 L26 22 L16 22 L16 18 L28 18 L28 14 Z" fill="white" opacity="0.9"/>
  
  <!-- Energy flow lines -->
  <path d="M32 12 Q34 14 36 16 Q34 18 32 20" stroke="url(#fluxGrad2)" stroke-width="2" fill="none" opacity="0.8"/>
  <path d="M34 8 Q36 10 38 12 Q36 14 34 16" stroke="url(#fluxGrad2)" stroke-width="2" fill="none" opacity="0.6"/>
  
  <!-- AI neural network nodes -->
  <circle cx="38" cy="20" r="2" fill="#fbbf24"/>
  <circle cx="42" cy="16" r="1.5" fill="#f59e0b"/>
  <circle cx="40" cy="24" r="1" fill="#fbbf24"/>
  
  <!-- Connection lines -->
  <line x1="38" y1="20" x2="42" y2="16" stroke="#f59e0b" stroke-width="1" opacity="0.6"/>
  <line x1="38" y1="20" x2="40" y2="24" stroke="#f59e0b" stroke-width="1" opacity="0.6"/>
  
  <!-- Glow effect -->
  <circle cx="24" cy="24" r="18" fill="url(#fluxGlow)" opacity="0.3"/>
  
  <!-- Version indicator -->
  <text x="8" y="42" font-family="Arial, sans-serif" font-size="6" font-weight="bold" fill="#3b82f6" opacity="0.7">1.0</text>
</svg>